<svg width="48" height="48" viewBox="0 0 48 48" fill="none" xmlns="http://www.w3.org/2000/svg">
<mask id="mask0_9_144" style="mask-type:alpha" maskUnits="userSpaceOnUse" x="0" y="0" width="48" height="48">
<rect width="48" height="48" fill="#D9D9D9"/>
</mask>
<g mask="url(#mask0_9_144)">
<path d="M5.45053 34.6496C5.11693 34.3496 4.95853 33.9828 4.97533 33.5492C4.99213 33.1164 5.15053 32.75 5.45053 32.45L17.6005 20.2496C17.7669 20.0832 17.9417 19.958 18.1249 19.874C18.3081 19.7908 18.4997 19.7492 18.6997 19.7492C18.9333 19.7492 19.1333 19.7908 19.2997 19.874C19.4669 19.958 19.6505 20.0832 19.8505 20.2496L26.8501 27.2492L38.4505 15.7496H33.9997C33.5669 15.7496 33.2005 15.5996 32.9005 15.2996C32.6005 14.9996 32.4505 14.6328 32.4505 14.1992C32.4505 13.7328 32.6005 13.3496 32.9005 13.0496C33.2005 12.7496 33.5669 12.5996 33.9997 12.5996H42.1501C42.5837 12.5996 42.9585 12.7496 43.2745 13.0496C43.5913 13.3496 43.7497 13.7164 43.7497 14.15V22.2992C43.7497 22.7328 43.5913 23.108 43.2745 23.4248C42.9585 23.7416 42.5837 23.9 42.1501 23.9C41.7501 23.9 41.3917 23.7416 41.0749 23.4248C40.7581 23.108 40.5997 22.7328 40.5997 22.2992V18.05L27.9505 30.6992C27.7833 30.8664 27.6081 30.9832 27.4249 31.0496C27.2417 31.116 27.0501 31.1492 26.8501 31.1492C26.6165 31.1492 26.4165 31.116 26.2501 31.0496C26.0837 30.9832 25.9169 30.8664 25.7497 30.6992L18.6997 23.6492L7.65013 34.7C7.35013 35 6.98333 35.15 6.54973 35.15C6.11693 35.15 5.75053 34.9832 5.45053 34.6496Z" fill="#6EEB83"/>
</g>
</svg>
